<svg width="1920" height="241" viewBox="0 0 1920 241" fill="none" xmlns="http://www.w3.org/2000/svg">
<path fill-rule="evenodd" clip-rule="evenodd" d="M0 0L52.8 13.3889C107.2 26.7778 212.8 53.5556 320 40.1667C427.2 26.7778 519.688 6.69437 626.888 33.4721C734.088 60.2499 852.8 102.545 960 129.323C1067.2 156.1 1172.8 133.889 1280 93.7222C1387.2 53.5556 1492.8 26.7778 1600 20.0833C1707.2 13.3889 1812.8 26.7778 1867.2 33.4722L1920 40.1667V241H1867.2C1812.8 241 1707.2 241 1600 241C1492.8 241 1387.2 241 1280 241C1172.8 241 1067.2 241 960 241C852.8 241 747.2 241 640 241C532.8 241 427.2 241 320 241C212.8 241 107.2 241 52.8 241H0V0Z" fill="url(#paint0_linear_53_232)"/>
<defs>
<linearGradient id="paint0_linear_53_232" x1="9.42411e-08" y1="225.5" x2="1920" y2="241" gradientUnits="userSpaceOnUse">
<stop stop-color="#0A010E"/>
<stop offset="1" stop-color="#04010E"/>
</linearGradient>
</defs>
</svg>
