<svg xmlns="http://www.w3.org/2000/svg" viewBox="0 0 500 500"><g id="freepik--Floor--inject-200"><path d="M75.92,140.16c41.23-48.34,95.4-87.36,157.2-102.11s131.36-2.81,179.37,38.8c44.13,38.24,66.11,96.86,72.92,154.85,5.07,43.16-5.88,119.86-27.46,158.64-32,4.57-46.59,44.19-69.54,53.63-29.69,12.22-61.54,18.19-93.53,21-40.82,3.6-82.28,4-122.44-4.18S90,438.31,60.08,410.28,13.41,339.91,13.36,298.93C13.31,245.19,41,181,75.92,140.16Z" style="fill:#263238"></path><path d="M75.92,140.16c41.23-48.34,95.4-87.36,157.2-102.11s131.36-2.81,179.37,38.8c44.13,38.24,66.11,96.86,72.92,154.85,5.07,43.16-5.88,119.86-27.46,158.64-32,4.57-46.59,44.19-69.54,53.63-29.69,12.22-61.54,18.19-93.53,21-40.82,3.6-82.28,4-122.44-4.18S90,438.31,60.08,410.28,13.41,339.91,13.36,298.93C13.31,245.19,41,181,75.92,140.16Z" style="fill:#fff;opacity:0.1"></path><path d="M404.28,262.75c85,49.05,85.4,128.57,1,177.61s-221.68,49.05-306.63,0-85.39-128.57-1-177.61S319.33,213.71,404.28,262.75Z" style="fill:#455a64"></path><g style="opacity:0.05"><path d="M404.28,262.75c85,49.05,85.4,128.57,1,177.61s-221.68,49.05-306.63,0-85.39-128.57-1-177.61S319.33,213.71,404.28,262.75Z" style="fill:#fff"></path></g></g><g id="freepik--Shadows--inject-200"><path d="M239.05,354.09,125.89,419.42a3.76,3.76,0,0,1-3.78,0L114,414.75a1.3,1.3,0,0,1,0-2.26l113.27-65.3a3.78,3.78,0,0,1,3.79,0l8,4.64A1.3,1.3,0,0,1,239.05,354.09Z" style="opacity:0.1"></path><path d="M204.76,342.73,91.61,408.06a3.76,3.76,0,0,1-3.78,0l-8.09-4.67a1.31,1.31,0,0,1,0-2.27L193,335.83a3.78,3.78,0,0,1,3.79,0l8,4.64A1.3,1.3,0,0,1,204.76,342.73Z" style="opacity:0.1"></path><path d="M439.39,355.07l-79.53-45.89-96.6,55.75a3.78,3.78,0,0,0,0,6.56l26.09,15.05c-16.07-1.92-33.42.73-45.84,7.95-19.63,11.4-19.53,29.9.23,41.3s51.69,11.41,71.32,0c12.43-7.23,16.94-17.3,13.55-26.61l4.75,2.74a18.89,18.89,0,0,0,18.92,0l87.11-50.28A3.79,3.79,0,0,0,439.39,355.07Z" style="opacity:0.1"></path><polygon points="207.8 313.87 267.97 348.71 322.13 317.5 261.25 282.48 207.8 313.87" style="opacity:0.1"></polygon></g><g id="freepik--Window--inject-200"><polygon points="317.54 51.87 311.21 48.26 310.81 186.78 310.83 186.79 361.91 215.96 361.93 208.7 362.31 77.43 317.54 51.87" style="fill:#263238"></polygon><polygon points="317.17 183.14 317.54 51.87 311.21 48.26 310.81 186.78 310.83 186.79 317.19 183.15 317.17 183.14" style="fill:#fff;opacity:0.2"></polygon><polygon points="361.93 208.7 317.19 183.15 310.83 186.79 361.91 215.96 361.93 208.7" style="fill:#fff;opacity:0.30000000000000004"></polygon><polygon points="387.44 91.78 381.11 88.17 380.71 226.69 380.73 226.7 431.81 255.87 431.83 248.61 432.21 117.34 387.44 91.78" style="fill:#263238"></polygon><polygon points="387.07 223.05 387.44 91.78 381.11 88.17 380.71 226.69 380.73 226.7 387.09 223.06 387.07 223.05" style="fill:#fff;opacity:0.2"></polygon><polygon points="431.83 248.61 387.09 223.06 380.73 226.7 431.81 255.87 431.83 248.61" style="fill:#fff;opacity:0.30000000000000004"></polygon></g><g id="freepik--side-table--inject-200"><polygon points="261.09 222.95 212.53 251.17 212.34 315.08 217.24 317.91 221.94 315.18 263.09 338.93 263.07 344.37 267.97 347.2 316.53 318.98 316.71 255.07 261.09 222.95" style="fill:#37474f"></polygon><polygon points="221.94 315.18 217.24 317.91 217.26 312.47 221.94 315.18" style="fill:#455a64"></polygon><path d="M221.94,315.18l41.15,23.75,0,5.44,4.9,2.83.18-63.91-55.62-32.12-.18,63.91,4.89,2.83,0-5.44Zm41.19-8.34-45.74-26.42.06-20.73,45.74,26.42h0Zm-.07,26.39-45.75-26.41.06-20.66v-.06h0l45.75,26.41h0Z" style="fill:#455a64"></path><polygon points="217.31 306.82 217.37 286.16 217.37 286.1 263.12 312.51 263.12 312.51 263.06 333.23 217.31 306.82" style="fill:#455a64"></polygon><polygon points="217.39 280.43 217.45 259.69 263.19 286.11 263.19 286.11 263.13 306.84 217.39 280.43" style="fill:#455a64"></polygon><polygon points="268.15 283.29 316.71 255.07 316.53 318.98 267.97 347.2 268.15 283.29" style="fill:#455a64"></polygon><polygon points="268.15 283.29 212.53 251.17 261.09 222.95 316.71 255.07 268.15 283.29" style="fill:#455a64"></polygon><polygon points="221.94 315.18 217.24 317.91 217.26 312.47 221.94 315.18" style="opacity:0.30000000000000004"></polygon><polygon points="217.37 286.16 217.37 286.1 217.37 286.1 217.37 286.1 217.37 286.16" style="fill:#787878"></polygon><rect x="240.24" y="272.89" height="52.82" style="fill:#cfcfcf"></rect><polygon points="217.45 259.69 263.19 286.11 263.19 286.11 217.45 259.69" style="fill:#cfcfcf"></polygon><path d="M221.94,315.18l41.15,23.75,0,5.44,4.9,2.83.18-63.91-55.62-32.12-.18,63.91,4.89,2.83,0-5.44Zm41.19-8.34-45.74-26.42.06-20.73,45.74,26.42h0Zm-.07,26.39-45.75-26.41.06-20.66v-.06h0l45.75,26.41h0Z" style="opacity:0.2"></path><polygon points="217.31 306.82 217.37 286.16 217.37 286.1 263.12 312.51 263.12 312.51 263.06 333.23 217.31 306.82" style="opacity:0.1"></polygon><polygon points="217.39 280.43 217.45 259.69 263.19 286.11 263.19 286.11 263.13 306.84 217.39 280.43" style="opacity:0.1"></polygon><polygon points="232.36 276.02 232.38 273.15 248.22 282.3 248.22 282.3 248.2 285.16 232.36 276.02" style="opacity:0.30000000000000004"></polygon><polygon points="232.36 302.05 232.38 299.18 248.22 308.33 248.22 308.33 248.2 311.19 232.36 302.05" style="opacity:0.30000000000000004"></polygon><polygon points="268.15 283.29 316.71 255.07 316.53 318.98 267.97 347.2 268.15 283.29" style="opacity:0.30000000000000004"></polygon><polygon points="268.15 283.29 212.53 251.17 261.09 222.95 316.71 255.07 268.15 283.29" style="opacity:0.1"></polygon><path d="M270.77,248.64c-5.76-3.33-15.08-3.33-20.81,0s-5.69,8.72.07,12.05,15.08,3.33,20.81,0S276.54,252,270.77,248.64Z" style="opacity:0.05"></path><path d="M275.77,227.69l-15.81.46-15.82-.46c-.68,10.68,1.4,21.57,4.28,26.88h0a7.21,7.21,0,0,0,3.13,3.19c4.67,2.69,12.21,2.69,16.85,0a7,7,0,0,0,3.12-3.27C274.39,249.15,276.45,238.32,275.77,227.69Z" style="fill:#455a64"></path><path d="M271.1,221.22c6.2,3.57,6.23,9.37.08,12.95s-16.17,3.58-22.37,0-6.23-9.38-.07-12.95S264.91,217.64,271.1,221.22Z" style="fill:#455a64"></path><g style="opacity:0.1"><path d="M271.1,221.22c6.2,3.57,6.23,9.37.08,12.95s-16.17,3.58-22.37,0-6.23-9.38-.07-12.95S264.91,217.64,271.1,221.22Z"></path></g><path d="M268.65,222.64c4.84,2.79,4.86,7.32.06,10.11s-12.62,2.79-17.45,0-4.86-7.32-.06-10.11S263.82,219.85,268.65,222.64Z" style="fill:#263238"></path><path d="M258.64,228.14a10.4,10.4,0,0,0,9.27,2.11,9.7,9.7,0,0,0,6.5-6.57,18.9,18.9,0,0,1-5.07-3.53,13,13,0,0,1,7.18.26,7.33,7.33,0,0,0,.55-6.86,12.56,12.56,0,0,0-8.58-.59,11.36,11.36,0,0,1,8.67-2.73,33.15,33.15,0,0,0-2.08-13.32c-5.9.3-11.61,2.85-13.54,4.67a21.54,21.54,0,0,0,.65,6.27,5.09,5.09,0,0,1-2.74-4c-3.69.92-5.27,2.76-5.84,4.17A15.39,15.39,0,0,0,257.1,215c-3.46-1-4.87-4.9-4.87-4.9C248.82,218.21,249.47,227.35,258.64,228.14Z" style="fill:#455a64"></path><path d="M258.64,228.14a10.4,10.4,0,0,0,9.27,2.11,9.7,9.7,0,0,0,6.5-6.57,18.9,18.9,0,0,1-5.07-3.53,13,13,0,0,1,7.18.26,7.33,7.33,0,0,0,.55-6.86,12.56,12.56,0,0,0-8.58-.59,11.36,11.36,0,0,1,8.67-2.73,33.15,33.15,0,0,0-2.08-13.32c-5.9.3-11.61,2.85-13.54,4.67a21.54,21.54,0,0,0,.65,6.27,5.09,5.09,0,0,1-2.74-4c-3.69.92-5.27,2.76-5.84,4.17A15.39,15.39,0,0,0,257.1,215c-3.46-1-4.87-4.9-4.87-4.9C248.82,218.21,249.47,227.35,258.64,228.14Z" style="opacity:0.2"></path><path d="M258.64,228.14a10.4,10.4,0,0,0,9.27,2.11,9.7,9.7,0,0,0,6.5-6.57,18.9,18.9,0,0,1-5.07-3.53,13,13,0,0,1,7.18.26,7.33,7.33,0,0,0,.55-6.86,12.56,12.56,0,0,0-8.58-.59,11.36,11.36,0,0,1,8.67-2.73,33.15,33.15,0,0,0-2.08-13.32c-5.9.3-11.61,2.85-13.54,4.67a21.54,21.54,0,0,0,.65,6.27,5.09,5.09,0,0,1-2.74-4c-3.69.92-5.27,2.76-5.84,4.17A15.39,15.39,0,0,0,257.1,215c-3.46-1-4.87-4.9-4.87-4.9C248.82,218.21,249.47,227.35,258.64,228.14Z" style="opacity:0.2"></path><g style="opacity:0.1"><path d="M258.43,229h0a.34.34,0,0,1-.31-.36c.56-7.45,4.82-19.74,15-29.88a.34.34,0,1,1,.48.48c-10,10-14.23,22.12-14.78,29.45A.33.33,0,0,1,258.43,229Z" style="fill:#f5f5f5"></path></g><path d="M261.22,232.12a9.68,9.68,0,0,1-15.15-4,16.4,16.4,0,0,0,4.59-3.11,13,13,0,0,0-6.8.2,6.36,6.36,0,0,1-1-6.12,12.51,12.51,0,0,1,8.1-.48,12,12,0,0,0-8.4-2.49,27.06,27.06,0,0,1,1.13-11.89c5.62.34,11.19,2.67,13.12,4.32a17.85,17.85,0,0,1-.23,5.56,4.09,4.09,0,0,0,2.33-3.58c3.52.86,5.11,2.5,5.73,3.75a12.28,12.28,0,0,1-2.84,6.25c3.18-.91,4.26-4.32,4.26-4.32C269.78,223.38,269.72,231.44,261.22,232.12Z" style="fill:#455a64"></path><path d="M261.22,232.12a9.68,9.68,0,0,1-15.15-4,16.4,16.4,0,0,0,4.59-3.11,13,13,0,0,0-6.8.2,6.36,6.36,0,0,1-1-6.12,12.51,12.51,0,0,1,8.1-.48,12,12,0,0,0-8.4-2.49,27.06,27.06,0,0,1,1.13-11.89c5.62.34,11.19,2.67,13.12,4.32a17.85,17.85,0,0,1-.23,5.56,4.09,4.09,0,0,0,2.33-3.58c3.52.86,5.11,2.5,5.73,3.75a12.28,12.28,0,0,1-2.84,6.25c3.18-.91,4.26-4.32,4.26-4.32C269.78,223.38,269.72,231.44,261.22,232.12Z" style="opacity:0.30000000000000004"></path><g style="opacity:0.1"><path d="M261.44,232.94a.33.33,0,0,1-.33-.29c-1-6.49-5.68-17.25-15.78-26.24a.34.34,0,0,1,.46-.51c10.23,9.11,15,20,16,26.65a.33.33,0,0,1-.29.38Z" style="fill:#fff"></path></g></g><g id="freepik--Device--inject-200"><path d="M218.23,46.75h0c-.88-3.07-7.11-8.9-13.3-8.78a5.57,5.57,0,0,0-1.75.35L82.8,106.8a11.66,11.66,0,0,0-5.82,10V377.24c0,6.64,7.64,13,14.83,9.92l0,0a3,3,0,0,0,.46-.19l120.4-68.61a11.53,11.53,0,0,0,5.81-10V48A2.89,2.89,0,0,0,218.23,46.75Z" style="fill:#BE3938"></path><path d="M93.77,144.34a5.77,5.77,0,0,1,2.91-5l111.79-63.6a2.89,2.89,0,0,1,4.31,2.51v210a5.78,5.78,0,0,1-2.91,5L98.08,356.94a2.88,2.88,0,0,1-4.31-2.5Z" style="fill:#263238"></path><path d="M77,116.81V377.24c0,6.64,7.64,13,14.83,9.92l0,0A2.87,2.87,0,0,1,88,384.44V124A11.44,11.44,0,0,1,90,117.65l-11.79-5.89A11.47,11.47,0,0,0,77,116.81Z" style="opacity:0.30000000000000004"></path><path d="M204.94,38a5.57,5.57,0,0,0-1.75.35L82.8,106.8a11.53,11.53,0,0,0-4.63,5L90,117.65A11.58,11.58,0,0,1,93.83,114l120.4-68.5a2.88,2.88,0,0,1,4,1.25h0C217.36,43.67,211.13,37.84,204.94,38Z" style="fill:#fff;opacity:0.1"></path><path d="M168.11,88.51c.85-.49,1.55-.11,1.55.86A3.43,3.43,0,0,1,168.12,92L144.5,105.67c-.85.49-1.53.08-1.53-.89a3.32,3.32,0,0,1,1.52-2.63Z" style="fill:#263238"></path><path d="M138.42,105.65c.85-.49,1.53-.1,1.54.87a3.4,3.4,0,0,1-1.53,2.66c-.84.48-1.54.08-1.54-.89A3.36,3.36,0,0,1,138.42,105.65Z" style="fill:#263238"></path><path d="M153.54,86.52c1.69-1,3.06-.19,3.06,1.75a6.72,6.72,0,0,1-3,5.3c-1.69,1-3.09.18-3.09-1.76A6.75,6.75,0,0,1,153.54,86.52Z" style="fill:#263238"></path><path d="M153.55,331.7c3.44-2,6.22-.41,6.23,3.54a13.76,13.76,0,0,1-6.19,10.81c-3.44,2-6.29.36-6.3-3.59A13.73,13.73,0,0,1,153.55,331.7Z" style="fill:#263238"></path></g><g id="freepik--Screen--inject-200"><path d="M240.27,91.43h0c-.79-2.79-6.44-8.08-12.07-8a5,5,0,0,0-1.58.31L117.34,145.94a10.63,10.63,0,0,0-5.29,9.08V391.41c0,6,7,11.77,13.46,9,0,0,0,0,0,0a2.47,2.47,0,0,0,.42-.17l109.29-62.27a10.46,10.46,0,0,0,5.27-9.09V92.57A2.62,2.62,0,0,0,240.27,91.43Z" style="fill:#263238"></path><path d="M112.05,155V391.41c0,6,7,11.77,13.46,9,0,0,0,0,0,0a2.6,2.6,0,0,1-3.49-2.44V161.56a10.45,10.45,0,0,1,1.77-5.78l-10.7-5.34A10.36,10.36,0,0,0,112.05,155Z" style="fill:#fff;opacity:0.1"></path><path d="M228.2,83.45a5,5,0,0,0-1.58.31L117.34,145.94a10.3,10.3,0,0,0-4.2,4.5l10.7,5.34a10.41,10.41,0,0,1,3.51-3.31L236.64,90.29a2.61,2.61,0,0,1,3.63,1.14h0C239.48,88.63,233.83,83.34,228.2,83.45Z" style="fill:#fff;opacity:0.2"></path><polygon points="170.55 221.14 170.56 224.93 158.16 232.09 158.15 228.3 170.55 221.14" style="fill:#455a64"></polygon><polygon points="194.36 338.51 194.37 342.31 158.53 363 158.52 359.2 194.36 338.51" style="fill:#455a64"></polygon><path d="M151.17,357.9,230.65,312l0,14.86-79.49,45.89a4.74,4.74,0,0,0,.06-.75l0-13.42A3.69,3.69,0,0,0,151.17,357.9Zm43.2-15.59v-3.8L158.52,359.2V363l35.84-20.69M209,333.85v-3.79l-10.51,6.07v3.79L209,333.85" style="fill:#455a64"></path><polygon points="209 330.06 209.01 333.85 198.5 339.92 198.49 336.13 209 330.06" style="fill:#455a64"></polygon><path d="M151.09,331.72l79.49-45.89,0,14.86-79.48,45.89a4.84,4.84,0,0,0,.06-.75l0-13.43A3.64,3.64,0,0,0,151.09,331.72Zm68.72-30.33V297.6l-32.23,18.61V320l32.23-18.61m-36.36,21,0-3.8-25,14.43v3.8l25-14.43" style="fill:#455a64"></path><polygon points="219.8 297.6 219.81 301.39 187.58 320 187.57 316.21 219.8 297.6" style="fill:#455a64"></polygon><polygon points="183.44 318.59 183.44 322.39 158.45 336.82 158.44 333.02 183.44 318.59" style="fill:#455a64"></polygon><path d="M148.06,356.78c1.53-.88,2.81-.37,3.11,1.12a3.69,3.69,0,0,1,.06.69l0,13.42a4.74,4.74,0,0,1-.06.75,7.06,7.06,0,0,1-3.09,4.7l-11.68,6.75c-1.75,1-3.17.2-3.17-1.81l0-13.42a6.92,6.92,0,0,1,3.15-5.46Z" style="fill:#BE3938"></path><polygon points="199.57 283.05 199.58 286.85 158.38 310.63 158.37 306.84 199.57 283.05" style="fill:#455a64"></polygon><path d="M148,330.6c1.53-.89,2.81-.37,3.1,1.12a3.64,3.64,0,0,1,.07.68l0,13.43a4.84,4.84,0,0,1-.06.75,7.1,7.1,0,0,1-3.09,4.71L136.36,358c-1.74,1-3.16.2-3.17-1.81l0-13.42a6.94,6.94,0,0,1,3.14-5.46Z" style="fill:#BE3938"></path><polygon points="203.72 228.21 203.73 232 192.52 238.48 192.51 234.69 203.72 228.21" style="fill:#455a64"></polygon><path d="M151,305.54l79.48-45.89.05,14.86L151.06,320.4a4.74,4.74,0,0,0,.06-.75l0-13.42A3.69,3.69,0,0,0,151,305.54Zm48.56-18.69v-3.8l-41.2,23.79v3.79l41.2-23.78" style="fill:#455a64"></path><polygon points="182.36 266.77 182.37 270.56 158.31 284.46 158.29 280.66 182.36 266.77" style="fill:#455a64"></polygon><path d="M147.91,304.42c1.53-.88,2.81-.37,3.11,1.12a3.69,3.69,0,0,1,.06.69l0,13.42a4.74,4.74,0,0,1-.06.75,7.06,7.06,0,0,1-3.09,4.7l-11.68,6.75c-1.75,1-3.16.2-3.17-1.81l0-13.42a7,7,0,0,1,3.15-5.46Z" style="fill:#BE3938"></path><path d="M150.94,279.36l79.49-45.89,0,14.86L151,294.22a4.84,4.84,0,0,0,.06-.75L151,280A3,3,0,0,0,150.94,279.36Zm31.43-8.8v-3.79l-24.07,13.89,0,3.8,24.06-13.9" style="fill:#455a64"></path><polygon points="186.16 238.35 186.17 242.14 158.23 258.27 158.22 254.48 186.16 238.35" style="fill:#455a64"></polygon><path d="M150.8,227l79.48-45.89,0,14.86-79.48,45.89a4.84,4.84,0,0,0,.06-.75l0-13.43A3.66,3.66,0,0,0,150.8,227Zm52.86-21.18,0-3.79-29,16.72v3.79l29-16.72m-33.1,19.11v-3.79l-12.4,7.16v3.79l12.4-7.16" style="fill:#455a64"></path><polygon points="203.65 202.03 203.66 205.82 174.69 222.54 174.68 218.75 203.65 202.03" style="fill:#455a64"></polygon><path d="M147.84,278.24c1.53-.89,2.81-.37,3.1,1.12a3,3,0,0,1,.07.68l0,13.43a4.84,4.84,0,0,1-.06.75,7.06,7.06,0,0,1-3.09,4.7l-11.68,6.75c-1.75,1-3.17.2-3.17-1.81l0-13.42a6.92,6.92,0,0,1,3.15-5.46Z" style="fill:#BE3938"></path><path d="M150.87,253.18l79.49-45.89,0,14.86L150.91,268a4.93,4.93,0,0,0,.06-.75l0-13.43A3.66,3.66,0,0,0,150.87,253.18Zm35.3-11v-3.79l-27.94,16.13v3.79l27.94-16.13M203.73,232v-3.8l-11.21,6.48v3.79L203.73,232" style="fill:#455a64"></path><polygon points="206.56 168.93 206.57 172.73 179.98 188.08 179.97 184.29 206.56 168.93" style="fill:#455a64"></polygon><path d="M147.76,252.06c1.53-.89,2.82-.37,3.11,1.12a3.66,3.66,0,0,1,.06.68l0,13.43a4.93,4.93,0,0,1-.06.75,7,7,0,0,1-3.09,4.7l-11.68,6.75c-1.75,1-3.16.2-3.17-1.81l0-13.42a7,7,0,0,1,3.15-5.46Z" style="fill:#BE3938"></path><polygon points="175.34 186.96 175.35 190.75 158.07 200.73 158.06 196.94 175.34 186.96" style="fill:#455a64"></polygon><path d="M141.63,217l-.09,0Z" style="fill:#5d3464"></path><path d="M142.09,190.9l88.08-50.85.07,25.77-88.08,50.85c2.53-1.79,2.65-1.9,2.78-2A26.94,26.94,0,0,0,150.8,207a22.07,22.07,0,0,0,2.54-9.67C153.31,190.19,148.28,187.32,142.09,190.9ZM158,188.45l0,5.66,38.55-22.26,0-5.66L158,188.45m48.54-15.72v-3.8L180,184.29v3.79l26.59-15.35m-31.21,18,0-3.79-17.28,10v3.79l17.29-10" style="fill:#455a64"></path><polygon points="196.58 166.19 196.6 171.85 158.05 194.11 158.03 188.45 196.58 166.19" style="fill:#455a64"></polygon><polygon points="170.55 221.14 170.56 224.93 158.16 232.09 158.15 228.3 170.55 221.14" style="fill:#fff;opacity:0.30000000000000004"></polygon><g style="opacity:0.30000000000000004"><polygon points="194.36 338.51 194.37 342.31 158.53 363 158.52 359.2 194.36 338.51" style="fill:#fff"></polygon></g><g style="opacity:0.30000000000000004"><polygon points="209 330.06 209.01 333.85 198.5 339.92 198.49 336.13 209 330.06" style="fill:#fff"></polygon></g><g style="opacity:0.30000000000000004"><polygon points="219.8 297.6 219.81 301.39 187.58 320 187.57 316.21 219.8 297.6" style="fill:#fff"></polygon></g><g style="opacity:0.30000000000000004"><polygon points="183.44 318.59 183.44 322.39 158.45 336.82 158.44 333.02 183.44 318.59" style="fill:#fff"></polygon></g><g style="opacity:0.30000000000000004"><polygon points="199.57 283.05 199.58 286.85 158.38 310.63 158.37 306.84 199.57 283.05" style="fill:#fff"></polygon></g><g style="opacity:0.30000000000000004"><polygon points="203.72 228.21 203.73 232 192.52 238.48 192.51 234.69 203.72 228.21" style="fill:#fff"></polygon></g><g style="opacity:0.30000000000000004"><polygon points="182.36 266.77 182.37 270.56 158.31 284.46 158.29 280.66 182.36 266.77" style="fill:#fff"></polygon></g><g style="opacity:0.30000000000000004"><polygon points="186.16 238.35 186.17 242.14 158.23 258.27 158.22 254.48 186.16 238.35" style="fill:#fff"></polygon></g><g style="opacity:0.30000000000000004"><polygon points="203.65 202.03 203.66 205.82 174.69 222.54 174.68 218.75 203.65 202.03" style="fill:#fff"></polygon></g><g style="opacity:0.30000000000000004"><polygon points="206.56 168.93 206.57 172.73 179.98 188.08 179.97 184.29 206.56 168.93" style="fill:#fff"></polygon></g><g style="opacity:0.30000000000000004"><polygon points="175.34 186.96 175.35 190.75 158.07 200.73 158.06 196.94 175.34 186.96" style="fill:#fff"></polygon></g><g style="opacity:0.30000000000000004"><polygon points="196.58 166.19 196.6 171.85 158.05 194.11 158.03 188.45 196.58 166.19" style="fill:#fff"></polygon></g><path d="M141.32,217.12l-.09,0Z" style="fill:#5d3464"></path><path d="M142.09,190.9c6.19-3.58,11.22-.71,11.25,6.41A22.07,22.07,0,0,1,150.8,207c-.87-3.33-3.6-4.72-7-3.49a9.84,9.84,0,0,0,2.75-6.3c0-2.81-2-3.94-4.44-2.53a9.7,9.7,0,0,0-4.41,7.64c0,2.13,1.15,3.29,2.77,3.11a20.6,20.6,0,0,0-7,11.56c-1.61-1.3-2.57-3.6-2.58-6.71C130.89,203.14,135.89,194.48,142.09,190.9Z" style="fill:#BE3938"></path><path d="M142.1,194.66c2.44-1.41,4.43-.28,4.44,2.53a9.84,9.84,0,0,1-2.75,6.3c3.41-1.23,6.14.16,7,3.49a26.06,26.06,0,0,1-5.29,7.17l-.13.12-.14.12-.14.13-.13.12-.41.34-.1.09-.14.11-.06,0-.08.06-.07.05-.08.07-.06.05-.08.06-.08,0-.07.06-.08.06-.07.05-.09.06-.09.07-.11.08-.15.1-.07,0-.09.06-.06,0-.09.06-.07,0-.09.06-.06,0-.09.06-.06,0-.1.06-.21.12-.16.09-.15.08-.06,0-.09.05-.07,0-.09,0-.07,0-.08,0-.07,0-.09,0-.06,0-.1,0-.16.08-.1,0-.09,0-.07,0-.08,0-.07,0-.07,0-.08,0-.07,0-.08,0-.07,0-.08,0-.06,0-.08,0-.15,0-.38.11-.14,0-.13,0-.14,0-.14,0a6.08,6.08,0,0,1-5.34-1,20.6,20.6,0,0,1,7-11.56c-1.62.18-2.77-1-2.77-3.11A9.7,9.7,0,0,1,142.1,194.66Z" style="fill:#BE3938"></path><g style="opacity:0.5"><path d="M142.1,194.66c2.44-1.41,4.43-.28,4.44,2.53a9.84,9.84,0,0,1-2.75,6.3c3.41-1.23,6.14.16,7,3.49a26.06,26.06,0,0,1-5.29,7.17l-.13.12-.14.12-.14.13-.13.12-.41.34-.1.09-.14.11-.06,0-.08.06-.07.05-.08.07-.06.05-.08.06-.08,0-.07.06-.08.06-.07.05-.09.06-.09.07-.11.08-.15.1-.07,0-.09.06-.06,0-.09.06-.07,0-.09.06-.06,0-.09.06-.06,0-.1.06-.21.12-.16.09-.15.08-.06,0-.09.05-.07,0-.09,0-.07,0-.08,0-.07,0-.09,0-.06,0-.1,0-.16.08-.1,0-.09,0-.07,0-.08,0-.07,0-.07,0-.08,0-.07,0-.08,0-.07,0-.08,0-.06,0-.08,0-.15,0-.38.11-.14,0-.13,0-.14,0-.14,0a6.08,6.08,0,0,1-5.34-1,20.6,20.6,0,0,1,7-11.56c-1.62.18-2.77-1-2.77-3.11A9.7,9.7,0,0,1,142.1,194.66Z" style="fill:#fff"></path></g><path d="M147.69,225.88c1.53-.89,2.81-.37,3.11,1.12a3.66,3.66,0,0,1,.06.68l0,13.43a4.84,4.84,0,0,1-.06.75,7.06,7.06,0,0,1-3.09,4.7l-11.68,6.75c-1.75,1-3.17.19-3.17-1.81l0-13.42a6.92,6.92,0,0,1,3.15-5.46Z" style="fill:#BE3938"></path><g style="opacity:0.5"><path d="M137,161.26a6.19,6.19,0,0,1,3.33-1l-.79,2.67a4.77,4.77,0,0,0-2.55.66c-1.09.63-1.48,1.27-1.48,1.81,0,1.61,5.21-2.61,5.22,1.29,0,1.83-1.33,4.18-4.06,5.75a6.22,6.22,0,0,1-3.87,1.07l.84-2.68a4.9,4.9,0,0,0,3-.71c1.07-.62,1.49-1.22,1.49-1.73,0-1.67-5.22,2.56-5.23-1.36C133,165.15,134.3,162.84,137,161.26Z" style="fill:#fff"></path><path d="M149.11,161c0,.21,0,.5,0,.73l-5.18,3c.21.71.84.84,1.75.31a4.5,4.5,0,0,0,1.64-1.66l1.32.81a7.73,7.73,0,0,1-3,3.08c-2.53,1.46-4.18.62-4.19-1.82a8,8,0,0,1,3.91-6.48C147.4,157.73,149.1,158.29,149.11,161Zm-5.25,2.23,2.92-1.68c-.14-.78-.7-1-1.47-.56a3.16,3.16,0,0,0-1.45,2.24" style="fill:#fff"></path><path d="M153,152.79v2.13l1.63-.94v2.14l-1.62.94v2.71c0,.6.3.75.75.5a2.58,2.58,0,0,0,.75-.69l.63,1.65a6,6,0,0,1-1.73,1.46c-1.82,1.05-2.89.65-2.9-1.46v-2.74l-1,.6V157l1-.59v-2.13Z" style="fill:#fff"></path><path d="M158.77,149.48v2.13l1.63-.94v2.14l-1.63.94v2.71c0,.6.3.76.75.5a2.71,2.71,0,0,0,.76-.69l.61,1.65a5.9,5.9,0,0,1-1.73,1.47c-1.82,1.05-2.89.64-2.89-1.46v-2.74l-1,.6v-2.14l1-.6v-2.13Z" style="fill:#fff"></path><polygon points="161.88 157.69 161.86 149.52 164.35 148.08 164.37 156.25 161.88 157.69" style="fill:#fff"></polygon><path d="M163.1,147.89c-.92.54-1.52.22-1.53-.63a3,3,0,0,1,1.53-2.41c.91-.53,1.51-.25,1.52.61A3,3,0,0,1,163.1,147.89Z" style="fill:#fff"></path><path d="M170.6,144.34c1.67-1,2.94-.6,3,1.93V151l-2.49,1.44v-4.2c0-1.18-.45-1.42-1.18-1a3,3,0,0,0-1.4,2.74v3.95l-2.5,1.44,0-8.17,2.39-1.38v.9A6.16,6.16,0,0,1,170.6,144.34Z" style="fill:#fff"></path><path d="M180.49,138.76l2.38-1.37v6.68a7.69,7.69,0,0,1-4.16,7,5.32,5.32,0,0,1-3.53,1l.9-2.52a3.88,3.88,0,0,0,4.3-3.59v-.27a5.49,5.49,0,0,1-2.11,2.19c-1.89,1.09-3.49.47-3.5-1.94a7.29,7.29,0,0,1,3.48-6c1-.57,1.74-.65,2.23-.16Zm-1.63,6.43a3.1,3.1,0,0,0,1.54-2.57c0-1-.65-1.29-1.55-.77a3.17,3.17,0,0,0-1.55,2.56c0,1,.68,1.29,1.56.78" style="fill:#fff"></path><path d="M187.51,134.57a6,6,0,0,1,2.81-.93l-.74,2.38a3.8,3.8,0,0,0-2.05.58c-.84.49-1.13.93-1.13,1.24,0,1.13,4.18-2.51,4.19.72,0,1.51-1.2,3.39-3.51,4.72a5.91,5.91,0,0,1-3.15,1l.74-2.4a4.31,4.31,0,0,0,2.49-.68c.83-.48,1.11-.85,1.11-1.19,0-1.1-4.21,2.57-4.22-.7C184.05,137.75,185.29,135.86,187.51,134.57Z" style="fill:#fff"></path></g><g style="opacity:0.5"><path d="M136.43,178.75c2-1.14,3.34-.6,3.34,1.5a6.44,6.44,0,0,1-3.32,5.35l-2.82,1.62v-6.84Zm-.05,5.34a3.35,3.35,0,0,0,1.69-2.86c0-1.18-.69-1.48-1.7-.9l-1.06.62v3.75l1.06-.61" style="fill:#fff"></path><path d="M142.54,176.68c1.5-.87,2.36-.6,2.37,1.09v2.94l-1.51.87v-.69a2.9,2.9,0,0,1-1.36,1.56c-1.11.64-1.73.28-1.73-.64s.62-1.94,2.05-2.77l.92-.53c0-.52-.35-.64-1-.27a4,4,0,0,0-1.25,1.18l-.55-.95A7.34,7.34,0,0,1,142.54,176.68Zm.75,3.26v-.46l-.7.4c-.51.3-.7.62-.7.94s.22.42.6.2a1.74,1.74,0,0,0,.8-1.08" style="fill:#fff"></path><path d="M149,172.94v1.68c-.15.07-.25.11-.37.18a2.13,2.13,0,0,0-1.1,1.95v2.44l-1.61.93,0-5.3,1.54-.89v.64A3.92,3.92,0,0,1,149,172.94Z" style="fill:#fff"></path><polygon points="151.29 169.76 151.3 173.56 152.95 170.76 154.86 169.66 152.95 173.03 155.04 174.87 153.08 176 151.78 174.88 151.3 175.71 151.31 177.02 149.69 177.95 149.67 170.7 151.29 169.76" style="fill:#fff"></polygon><polygon points="164.98 162.27 165.01 169.11 163.46 170 163.43 166.38 161.91 170.22 161.16 170.65 159.63 168.68 159.64 172.21 158.09 173.1 158.07 166.26 159.45 165.46 161.56 168.2 163.59 163.07 164.98 162.27" style="fill:#fff"></polygon><path d="M168.43,161.73c1.52-.88,2.61-.36,2.61,1.23a5.2,5.2,0,0,1-2.6,4.25c-1.5.87-2.6.36-2.61-1.24A5.25,5.25,0,0,1,168.43,161.73Zm0,4a2.09,2.09,0,0,0,1-1.83c0-.8-.42-1-1-.68a2.07,2.07,0,0,0-1,1.8c0,.82.43,1,1,.71" style="fill:#fff"></path><path d="M175.06,156l1.62-.94,0,7.26-1.54.89v-.53a3.49,3.49,0,0,1-1.35,1.4c-1.26.72-2.28.25-2.28-1.44a4.82,4.82,0,0,1,2.26-4c.54-.31,1-.39,1.28-.19Zm-.92,6.4a2.11,2.11,0,0,0,1-1.83c0-.8-.42-1-1-.69a2.1,2.1,0,0,0-1,1.81c0,.82.42,1,1,.71" style="fill:#fff"></path><path d="M182.45,156.39c0,.14,0,.33,0,.48l-3.36,1.94c.14.45.54.53,1.14.19a3.1,3.1,0,0,0,1.06-1.07l.85.52a5,5,0,0,1-2,2c-1.64,1-2.71.4-2.72-1.19a5.21,5.21,0,0,1,2.53-4.19C181.33,154.28,182.45,154.64,182.45,156.39Zm-3.4,1.45,1.88-1.09c-.09-.51-.44-.66-1-.36a2,2,0,0,0-.93,1.45" style="fill:#fff"></path></g><path d="M225.7,127a8.09,8.09,0,0,0-2.06,1.77,9.62,9.62,0,0,0-2.36,5.88c0,2,1,3.11,2.39,3.15a4,4,0,0,0,2.06-.61,9.73,9.73,0,0,0,4.42-7.66C230.14,126.74,228.15,125.6,225.7,127Z" style="fill:#BE3938"></path><path d="M221.28,134.67a9.62,9.62,0,0,1,2.36-5.88L216,133.21a8.61,8.61,0,0,0-3.91,6.78c0,2.49,1.77,3.5,3.94,2.25l7.66-4.42C222.25,137.78,221.29,136.63,221.28,134.67Z" style="fill:#455a64"></path></g><g id="freepik--Character--inject-200"><path d="M357.72,368.24l59.6-34.87a9,9,0,0,0,3.79-11.29l-3-7.23h0l1.61,3.88a8.22,8.22,0,0,1-3.54,10.32l-64.81,36.69A4.35,4.35,0,0,0,357.72,368.24Z" style="fill:#37474f"></path><path d="M416.81,295.76l-5.33,3.2,6.62,15.89h0l3,7.23a9,9,0,0,1-3.79,11.29l-59.6,34.87a4.35,4.35,0,0,1-6.36-2.5l-4.22,2.39-80-46.25L264.53,349l4.19.63.31-1.84a4.59,4.59,0,0,1,6.81-3.21l59,33.95A14.47,14.47,0,0,1,342,392.43l-.2,2.1h4.25l.87-5.15a14.43,14.43,0,0,1,7-10.13L422.1,340a5.43,5.43,0,0,1,7.61,2.37l6.45,13.55s2.11,1.13,2.94-.91Z" style="fill:#BE3938"></path><path d="M416.81,295.76l-5.33,3.2,6.62,15.89h0l3,7.23a9,9,0,0,1-3.79,11.29l-59.6,34.87a4.35,4.35,0,0,1-6.36-2.5l-4.22,2.39-80-46.25L264.53,349l4.19.63.31-1.84a4.59,4.59,0,0,1,6.81-3.21l59,33.95A14.47,14.47,0,0,1,342,392.43l-.2,2.1h4.25l.87-5.15a14.43,14.43,0,0,1,7-10.13L422.1,340a5.43,5.43,0,0,1,7.61,2.37l6.45,13.55s2.11,1.13,2.94-.91Z" style="opacity:0.7000000000000001"></path><path d="M341,229l-64,49.61a18,18,0,0,0-6.93,12.58l-7.19,75.27a2.44,2.44,0,0,0,3,.27l12.76-75.57a9.05,9.05,0,0,1,4.27-6.26l56.61-33.92C346.87,246.53,348.18,230.93,341,229Z" style="fill:#BE3938"></path><g style="opacity:0.2"><path d="M341,229l-64,49.61a18,18,0,0,0-6.93,12.58l-7.19,75.27a2.44,2.44,0,0,0,3,.27l12.76-75.57a9.05,9.05,0,0,1,4.27-6.26l56.61-33.92C346.87,246.53,348.18,230.93,341,229Z" style="fill:#fff"></path></g><path d="M414.39,314.59h0a3.56,3.56,0,0,0-1.55-1.81L348.62,275.7a8.9,8.9,0,0,0-8.94,0l-63.76,37a3.48,3.48,0,0,0-1.54,1.82h0c-1.83,3.37-2.45,11.05.1,15.94a4.06,4.06,0,0,0,1.46,1.55l64.22,37.08a8.93,8.93,0,0,0,8.94,0l63.76-37.05a3.48,3.48,0,0,0,1.43-1.57h0C416.83,325.64,416.22,318,414.39,314.59Z" style="fill:#BE3938"></path><path d="M414.39,314.59h0a3.56,3.56,0,0,0-1.55-1.81L348.62,275.7a8.9,8.9,0,0,0-8.94,0l-63.76,37a3.48,3.48,0,0,0-1.54,1.82h0c-1.83,3.37-2.45,11.05.1,15.94a4.06,4.06,0,0,0,1.46,1.55l64.22,37.08a8.93,8.93,0,0,0,8.94,0l63.76-37.05a3.48,3.48,0,0,0,1.43-1.57h0C416.83,325.64,416.22,318,414.39,314.59Z" style="opacity:0.30000000000000004"></path><path d="M414.39,314.59h0a3.57,3.57,0,0,1-1.54,4.36L349.09,356a8.93,8.93,0,0,1-8.94,0l-64.22-37.08a3.56,3.56,0,0,1-1.55-4.35h0c-1.83,3.37-2.45,11.05.1,15.94a4.06,4.06,0,0,0,1.46,1.55l64.22,37.08a8.93,8.93,0,0,0,8.94,0l63.76-37.05a3.48,3.48,0,0,0,1.43-1.57h0C416.83,325.64,416.22,318,414.39,314.59Z" style="opacity:0.30000000000000004"></path><path d="M343.63,216h0l0,0Z" style="fill:#ffc8b5"></path><path d="M419.69,244.13l-60.71-35a3.65,3.65,0,0,0-1.78-.49h-.3c-5.55,0-9.89,3.36-13.12,7.24a1.83,1.83,0,0,0-.13.16l0,0a3.64,3.64,0,0,0-.7,1.37l-17.42,64.88a8.64,8.64,0,0,0,4,9.71l60.72,35a3.59,3.59,0,0,0,2.14.48v0c6.95-.71,11-5,13.09-7.28a3.69,3.69,0,0,0,.83-1.52l17.41-64.88A8.62,8.62,0,0,0,419.69,244.13Z" style="fill:#BE3938"></path><path d="M419.69,244.13l-60.71-35a3.65,3.65,0,0,0-1.78-.49h-.3c-5.55,0-9.89,3.36-13.12,7.24a1.83,1.83,0,0,0-.13.16l0,0a3.64,3.64,0,0,0-.7,1.37l-17.42,64.88a8.64,8.64,0,0,0,4,9.71l60.72,35a3.59,3.59,0,0,0,2.14.48v0c6.95-.71,11-5,13.09-7.28a3.69,3.69,0,0,0,.83-1.52l17.41-64.88A8.62,8.62,0,0,0,419.69,244.13Z" style="opacity:0.2"></path><path d="M419.69,244.13l-60.71-35a3.65,3.65,0,0,0-1.78-.49h-.3c-5.55,0-9.89,3.36-13.12,7.24a3.7,3.7,0,0,1,4.57-.7l60.72,35.06a8.64,8.64,0,0,1,3.75,4.44l10.61-6.12A8.62,8.62,0,0,0,419.69,244.13Z" style="opacity:0.1"></path><path d="M412.82,254.63a8.6,8.6,0,0,1,.26,5.27l-17.41,64.88a3.68,3.68,0,0,1-3.28,2.72v0c6.95-.71,11-5,13.09-7.28a3.69,3.69,0,0,0,.83-1.52l17.41-64.88a8.57,8.57,0,0,0-.28-5.33Z" style="opacity:0.2"></path><path d="M289.45,367.67c1,4.11,1.23,11.51,1.23,11.51l2.73-1a7.1,7.1,0,0,1,7.6,1.73l.13.14a2.76,2.76,0,0,0,3.8.18h0a2.82,2.82,0,0,0,.94-2l.37-11.63Z" style="fill:#ffc8b5"></path><path d="M300,410.89c-5.66,6.07-16.11,11.37-23.69,6.19l.85,1.93c7.59,5.18,18-.12,23.7-6.19s2-10.27,7.09-15.65a18.46,18.46,0,0,0,4.41-6.55c-.23-.58-.44-1.34-.71-2.2a23.29,23.29,0,0,1-4.55,6.82C302,400.62,305.66,404.82,300,410.89Z" style="fill:#fff"></path><path d="M308.85,382.08a11,11,0,0,1-1.79-4.13,2.38,2.38,0,0,0-1.12-1.69l-.06,1.95a2.82,2.82,0,0,1-.94,2,2.76,2.76,0,0,1-3.8-.18l-.13-.14a7.1,7.1,0,0,0-7.6-1.73l-2.77,1.05a2.13,2.13,0,0,0-1.38,2c.17,8-3.54,18.52-7.44,24.32-4,1.66-7.46,7.12-5.7,11.12l.18.4c7.58,5.18,18-.12,23.69-6.19s2-10.27,7.1-15.65a23.29,23.29,0,0,0,4.55-6.82A24.86,24.86,0,0,0,308.85,382.08Z" style="fill:#BE3938"></path><path d="M308.85,382.08a11,11,0,0,1-1.79-4.13,2.38,2.38,0,0,0-1.12-1.69l-.06,1.95a2.82,2.82,0,0,1-.94,2,2.76,2.76,0,0,1-3.8-.18l-.13-.14a7.1,7.1,0,0,0-7.6-1.73l-2.77,1.05a2.13,2.13,0,0,0-1.38,2c.17,8-3.54,18.52-7.44,24.32-4,1.66-7.46,7.12-5.7,11.12l.18.4c7.58,5.18,18-.12,23.69-6.19s2-10.27,7.1-15.65a23.29,23.29,0,0,0,4.55-6.82A24.86,24.86,0,0,0,308.85,382.08Z" style="fill:#fff;opacity:0.2"></path><path d="M297.75,393.56a1,1,0,0,0,.89-1.72,11.08,11.08,0,0,0-10.89,0c-.17.63-.35,1.25-.54,1.87C290.42,392.1,293.68,391.5,297.75,393.56Z" style="fill:#fff"></path><path d="M299.15,389.26a1,1,0,0,0,.89-1.72,11.63,11.63,0,0,0-11.33.09q-.18,1-.39,1.95C291.62,387.84,295,387.14,299.15,389.26Z" style="fill:#fff"></path><path d="M296.22,397.84a1,1,0,0,0,.89-1.72,11.08,11.08,0,0,0-10.66-.11c-.24.68-.49,1.34-.75,2A10.66,10.66,0,0,1,296.22,397.84Z" style="fill:#fff"></path><path d="M281.82,405.56c-4,1.66-7.46,7.12-5.7,11.12l.18.4c7.47,5.1,17.71,0,23.43-5.92C295,401.8,285,404.13,281.82,405.56Z" style="fill:#fff"></path><path d="M294.54,402a1,1,0,0,0,1.29-.43,1,1,0,0,0-.4-1.29,11.06,11.06,0,0,0-10.68-.1c-.33.75-.68,1.46-1,2.14C287,400.6,290.35,399.9,294.54,402Z" style="fill:#fff"></path><path d="M277.53,390.79a71.26,71.26,0,0,1-3.52,11l2.91.17a7,7,0,0,1,6.25,4.64l.07.18a2.74,2.74,0,0,0,3.4,1.69h0a2.73,2.73,0,0,0,1.67-1.43l5-10.49Z" style="fill:#ffc8b5"></path><path d="M269.73,434.59c-7.63,3.26-19.32,3.9-24.18-3.9v2.11c4.86,7.8,16.55,7.16,24.18,3.9s6-8.59,12.81-11.45a18.54,18.54,0,0,0,6.68-4.22c0-.62.13-1.4.24-2.3a23.13,23.13,0,0,1-6.92,4.41C275.7,426,277.37,431.33,269.73,434.59Z" style="fill:#fff"></path><path d="M289.46,411.81a11,11,0,0,1,0-4.51,2.39,2.39,0,0,0-.35-2l-.84,1.76a2.76,2.76,0,0,1-5.07-.26l-.07-.18a7,7,0,0,0-6.25-4.64l-3-.17a2.15,2.15,0,0,0-2.09,1.31c-3,7.35-10.71,15.52-16.61,19.26-4.34-.1-9.71,3.49-9.71,7.87v.43c4.86,7.8,16.55,7.16,24.18,3.9s6-8.59,12.81-11.45a23.13,23.13,0,0,0,6.92-4.41A25.17,25.17,0,0,0,289.46,411.81Z" style="fill:#BE3938"></path><path d="M289.46,411.81a11,11,0,0,1,0-4.51,2.39,2.39,0,0,0-.35-2l-.84,1.76a2.76,2.76,0,0,1-5.07-.26l-.07-.18a7,7,0,0,0-6.25-4.64l-3-.17a2.15,2.15,0,0,0-2.09,1.31c-3,7.35-10.71,15.52-16.61,19.26-4.34-.1-9.71,3.49-9.71,7.87v.43c4.86,7.8,16.55,7.16,24.18,3.9s6-8.59,12.81-11.45a23.13,23.13,0,0,0,6.92-4.41A25.17,25.17,0,0,0,289.46,411.81Z" style="fill:#fff;opacity:0.2"></path><path d="M274.68,417.83A1,1,0,0,0,276,418a1,1,0,0,0,.16-1.34,11.07,11.07,0,0,0-10-4.38c-.4.51-.82,1-1.25,1.49C268.56,413.54,271.78,414.31,274.68,417.83Z" style="fill:#fff"></path><path d="M277.69,414.46a1,1,0,0,0,1.51-1.21,11.63,11.63,0,0,0-10.41-4.49c-.36.54-.75,1.09-1.14,1.63C271.38,410.12,274.71,410.83,277.69,414.46Z" style="fill:#fff"></path><path d="M271.55,421.13a1,1,0,0,0,1.51-1.21,11,11,0,0,0-9.71-4.4c-.5.52-1,1-1.5,1.51C265.44,416.84,268.66,417.61,271.55,421.13Z" style="fill:#fff"></path><path d="M255.26,422.39c-4.34-.1-9.71,3.49-9.71,7.87v.43c4.78,7.68,16.2,7.17,23.83,4C268.8,424.24,258.72,422.35,255.26,422.39Z" style="fill:#fff"></path><path d="M268.33,424.28a1,1,0,0,0,1.51-1.22,11.1,11.1,0,0,0-9.74-4.4c-.61.55-1.21,1.06-1.82,1.54C262,419.94,265.34,420.64,268.33,424.28Z" style="fill:#fff"></path><path d="M322.39,291.47l-38.22,21.29a18.94,18.94,0,0,0-9.41,20l7.42,39.95L276.1,392c5.25,7,17.3,7.4,17.3,7.4,6.72-13.48,11.65-19.21,15.47-30.5s6.36-19.09,6.36-19.09L347,341.17a37.59,37.59,0,0,0,27.5-32c.55-4.8.57-8.08.57-8.08Z" style="fill:#455a64"></path><path d="M322.39,291.47l-38.22,21.29a18.94,18.94,0,0,0-9.41,20l7.42,39.95L276.1,392c5.25,7,17.3,7.4,17.3,7.4,6.72-13.48,11.65-19.21,15.47-30.5s6.36-19.09,6.36-19.09L347,341.17a37.59,37.59,0,0,0,27.5-32c.55-4.8.57-8.08.57-8.08Z" style="fill:#fff;opacity:0.2"></path><path d="M322.68,302.2A18,18,0,0,0,327,313.85l-27,16.89a19.3,19.3,0,0,0-8.25,10.76l-9.55,31.21L290.79,338a15.79,15.79,0,0,1,7-9.62l24.91-15.39C320.16,306.58,322.68,302.2,322.68,302.2Z" style="opacity:0.2"></path><path d="M298.88,255c3.89,10.43,17.12,7.77,17.12,7.77C316.68,248.75,298.88,255,298.88,255Z" style="fill:#BE3938"></path><path d="M298.88,255c3.89,10.43,17.12,7.77,17.12,7.77C316.68,248.75,298.88,255,298.88,255Z" style="opacity:0.30000000000000004"></path><path d="M326.52,225.8h-1c-6.6.07-15,4.57-19,16.09l-15.86,30.72,18.11,8,9.9-29Z" style="fill:#ffc8b5"></path><path d="M313.81,246.19c-1.27,3.62-1.34,7.54-1.54,11.38s-.65,8.47-2.41,11.88a10.9,10.9,0,0,0-13.05.48,10.16,10.16,0,0,0-2.93,4.12l14.87,6.6,9.9-29,4.87-16A18.55,18.55,0,0,0,313.81,246.19Z" style="opacity:0.2"></path><path d="M308.91,275.1a10.82,10.82,0,0,0-8.19-6.62c-3.62-.59-7.74,1.31-10.08,4.14-2,2.39-1.67,5.61-.42,8.45a10.54,10.54,0,0,0,12.08,5.72C307,285.49,310.68,279.63,308.91,275.1Z" style="fill:#ffc8b5"></path><path d="M326.52,225.8c-7.88-.88-17.82,2.76-27.64,29.23,12.79.31,17.12,7.77,17.12,7.77,5.79-14.73,12.29-35.14,12.29-35.14Z" style="fill:#BE3938"></path><path d="M326.52,225.8c-7.88-.88-17.82,2.76-27.64,29.23,12.79.31,17.12,7.77,17.12,7.77,5.79-14.73,12.29-35.14,12.29-35.14Z" style="fill:#fff;opacity:0.4"></path><path d="M375.65,304.07c-6.78,6.52-39.35,7.71-56-8.1,1.59-11.17,1.06-23.13,0-35s-8-32.53,5.23-34.93c17.63-3.45,26.54-.28,40.94,3.47C378.44,250.5,376.71,281.88,375.65,304.07Z" style="fill:#fff"></path><path d="M316.32,207.73a13.21,13.21,0,0,1-6.45-6.9c-3.15-7.86,2.69-15,8.45-19.77a36.31,36.31,0,0,1,11.35-6.4c3.78-1.3,8.85-2.79,12.7-1.16,2.29,1,4.66,3.77,4,6.65a4.05,4.05,0,0,1,2.65-2.06,4,4,0,0,1,3.22.74c-1.37,1.22-2.67,2.5-4,3.72,1.42-1,3.91-.28,5,1a9.35,9.35,0,0,1,1.69,4.79,67,67,0,0,1-.07,19.49c-.5,3.33-1.79,7.61-4.52,9.59Z" style="fill:#263238"></path><path d="M332.61,220l.68,7.65a2.82,2.82,0,0,1-.43,1.69,4.33,4.33,0,0,0,.67,5,5.75,5.75,0,0,0,3.42,1.16,16.52,16.52,0,0,0,12.64-4.87,3.63,3.63,0,0,0,1-2.62l-.5-19.39Z" style="fill:#ffc8b5"></path><path d="M350.09,208.65,332.61,220l.6,6.79c3.71-.87,7.44-1.94,10.37-4.33C347.31,219.47,350.59,216.46,350.09,208.65Z" style="opacity:0.30000000000000004"></path><path d="M356,190.34c3.93-1.55,5.68-6.6,4.39-10.62s-5-6.92-9-8.29-8.3-1.44-12.52-1.36a36,36,0,0,0-10.51,1.34,13.73,13.73,0,0,0-8.15,6.4C332.73,177,346.34,182.3,356,190.34Z" style="fill:#BE3938"></path><path d="M356,190.34c3.93-1.55,5.68-6.6,4.39-10.62s-5-6.92-9-8.29-8.3-1.44-12.52-1.36a36,36,0,0,0-10.51,1.34,13.73,13.73,0,0,0-8.15,6.4C332.73,177,346.34,182.3,356,190.34Z" style="opacity:0.30000000000000004"></path><path d="M355.59,199.49c-7.66-18-32.84-19.49-43.92-11.25.32-1.41.19-2.82,1.23-4,.64-.72,1.55-1.22,2-2.06a11.17,11.17,0,0,0,.67-2.92,4.84,4.84,0,0,1,1.76-2.34c2.38-2.05,5.73-2.45,8.86-2.68,5.5-.4,11.13-.56,16.41,1a26.27,26.27,0,0,1,16.22,14.09,2.65,2.65,0,0,1,0,2.39,12.33,12.33,0,0,0-1.39,1.86,4.26,4.26,0,0,0-.19,2.13,5.92,5.92,0,0,1,0,2.14A2.32,2.32,0,0,1,355.59,199.49Z" style="fill:#BE3938"></path><path d="M355.59,199.49c-7.66-18-32.84-19.49-43.92-11.25.32-1.41.19-2.82,1.23-4,.64-.72,1.55-1.22,2-2.06a11.17,11.17,0,0,0,.67-2.92,4.84,4.84,0,0,1,1.76-2.34c2.38-2.05,5.73-2.45,8.86-2.68,5.5-.4,11.13-.56,16.41,1a26.27,26.27,0,0,1,16.22,14.09,2.65,2.65,0,0,1,0,2.39,12.33,12.33,0,0,0-1.39,1.86,4.26,4.26,0,0,0-.19,2.13,5.92,5.92,0,0,1,0,2.14A2.32,2.32,0,0,1,355.59,199.49Z" style="opacity:0.1"></path><path d="M342.37,231.54s2.51,4.84,2.75,9l-1.33,3.74c4.86,6.3,6.61,15,7.09,23s-.46,15.9-.94,23.84-.49,16.06,1.81,23.69c9.5,3.28,23.37,2,27.21-1.23.54-37.33,2.34-75.75-13.1-83.95-4.82-1.55-10.39-2.74-10.39-2.74l-7.56,5.33Z" style="fill:#BE3938"></path><path d="M342.37,231.54s2.51,4.84,2.75,9l-1.33,3.74c4.86,6.3,6.61,15,7.09,23s-.46,15.9-.94,23.84-.49,16.06,1.81,23.69c9.5,3.28,23.37,2,27.21-1.23.54-37.33,2.34-75.75-13.1-83.95-4.82-1.55-10.39-2.74-10.39-2.74l-7.56,5.33Z" style="fill:#fff;opacity:0.30000000000000004"></path><path d="M344.57,234.8a26.35,26.35,0,0,1,3.25,6.47,34.14,34.14,0,0,0,7.65-14.46l-7.56,5.33-5.54-.6a30.86,30.86,0,0,1,2.47,6.91A14.91,14.91,0,0,0,344.57,234.8Z" style="fill:#BE3938"></path><polygon points="351.69 222.38 350.43 221.69 350.54 225.97 351.97 224.31 351.69 222.38" style="fill:#BE3938"></polygon><path d="M351.69,222.38c-1.59,3.94-5.25,7.94-9.32,9.16a25,25,0,0,1,6.28,7.51,44.72,44.72,0,0,0,6.82-12.24Z" style="fill:#BE3938"></path><path d="M351.69,222.38c-1.59,3.94-5.25,7.94-9.32,9.16a25,25,0,0,1,6.28,7.51,44.72,44.72,0,0,0,6.82-12.24Z" style="fill:#fff;opacity:0.4"></path><path d="M333.29,227.69c-2.29,2.82-2.62,5-2.62,8.48l1.08,2.88c-4.87,15.57-3,50-9.75,63.15l-5.07-5.7c5.32-21.75-2-44.25-.91-58.64.91-12.18,9.76-12.48,13.65-12.92l3.35-.34Z" style="fill:#BE3938"></path><path d="M333.29,227.69c-2.29,2.82-2.62,5-2.62,8.48l1.08,2.88c-4.87,15.57-3,50-9.75,63.15l-5.07-5.7c5.32-21.75-2-44.25-.91-58.64.91-12.18,9.76-12.48,13.65-12.92l3.35-.34Z" style="fill:#fff;opacity:0.30000000000000004"></path><path d="M327.6,303.28v0h0v0s0,0,0-.06a77265801265.8,77265801265.8,0,0,0,0-.12l0-.06a.14.14,0,0,0,0-.06l0-.06h0l-11.85-22.06L314,282.65l11.86,22.06a1.61,1.61,0,0,1,.15.41h0a.37.37,0,0,1-.05.25h0l1.62-1.86a.26.26,0,0,0,0-.09s0-.05,0-.07Z" style="fill:#fff;opacity:0.15"></path><path d="M315.56,280.73l0-.07,0-.07a.43.43,0,0,1,0-.07l-.05-.07-.05-.07-.05-.07-.06-.07-.05-.06-.05-.06,0-.05,0-.05,0,0,0,0,0,0,0,0,0,0,0,0,0,0,0,0,0,0,0,0,0,0,0,0,0,0,0,0,0,0,0,0,0,0,0,0,0,0,0,0,0,0,0,0,0,0-.05,0a1.29,1.29,0,0,0-.17-.16l0,0,0,0,0,0,0,0,0,0,0,0,0,0,0,0,0,0,0,0h0l0,0,0,0,0,0,0,0,0,0,0,0,0,0,0,0,0,0,0,0,0,0,0,0,0,0,0,0,0,0-.06,0-.06,0-.06,0-.07,0-.08,0-.07-.05,0,0-13.63-7.67,0,0-.08,0-.07,0-.08,0-.07,0-.07,0-.08,0-.07,0-.07,0-.08,0h-.25a.25.25,0,0,0-.2.08l-1.63,1.86c.07-.08.21-.1.4-.06h0a2.77,2.77,0,0,1,.75.31l13.62,7.67a5.77,5.77,0,0,1,.78.51h0c.26.2.51.42.75.64h0a8.05,8.05,0,0,1,.64.69h0a3.65,3.65,0,0,1,.45.65l1.63-1.86Z" style="fill:#fff;opacity:0.2"></path><path d="M374.58,235.49c-1.93-3.32-4.89-5.66-8.72-5.94l-2.3,3.5A29,29,0,0,0,360,247.29l.41,36.83h0c-.91.36-1.8.75-2.7,1.12A110.79,110.79,0,0,1,334,292.4a23.38,23.38,0,0,0-14.94-5.07l2,3.74c-3.81,2.44-12.41-2-12.41-2-.63,5.37,2.85,10.94,7.46,13.76s48.63-1.32,58-7.36c6.14-4,4.69-41.94,4.69-41.94A31.7,31.7,0,0,0,374.58,235.49Z" style="fill:#ffc8b5"></path><path d="M299.4,278a25.46,25.46,0,0,0-.5,4.41,16.08,16.08,0,0,0,4.24,9.41,4.85,4.85,0,0,0,1.83,1.29,2.15,2.15,0,0,0,2.12-.34,3.22,3.22,0,0,0,.74-2.21,11.85,11.85,0,0,0-.2-3.57,5,5,0,0,0-1.88-3,11,11,0,0,0-2.38-1,5.92,5.92,0,0,1-2.13-1.54Z" style="fill:#ffc8b5"></path><path d="M365.86,229.55c10.58,1,16.45,8.33,13.86,40.75-7.53,4.87-20.8.72-20.8.72C356.66,235.52,362.41,231.62,365.86,229.55Z" style="fill:#BE3938"></path><path d="M365.86,229.55c10.58,1,16.45,8.33,13.86,40.75-7.53,4.87-20.8.72-20.8.72C356.66,235.52,362.41,231.62,365.86,229.55Z" style="fill:#fff;opacity:0.4"></path><polygon points="324.92 232.46 326.52 237.92 329.35 233.57 324.92 232.46" style="fill:#BE3938"></polygon><path d="M324.92,232.46a18.15,18.15,0,0,1,7.94-9.63l.43,4.86c-2,2.29-2.29,4.46-2.62,8.48C329.1,234.41,324.92,232.46,324.92,232.46Z" style="fill:#BE3938"></path><path d="M324.92,232.46a18.15,18.15,0,0,1,7.94-9.63l.43,4.86c-2,2.29-2.29,4.46-2.62,8.48C329.1,234.41,324.92,232.46,324.92,232.46Z" style="fill:#fff;opacity:0.4"></path><path d="M312.73,192.36A68.41,68.41,0,0,0,319,218.2a20.7,20.7,0,0,0,3,5,8.84,8.84,0,0,0,4.89,3c2.36.44,4.75-.39,7-1.21,4.13-1.5,8.37-3.06,11.68-5.95s5.54-7.45,4.42-11.7a7.54,7.54,0,0,0,7.15-.85,7.64,7.64,0,0,0,2.83-6.68c-.26-2.45-2.13-4.9-4.58-5a5.26,5.26,0,0,0-3.92,1.93,15.62,15.62,0,0,0-2.29,3.86,5.12,5.12,0,0,1-1.16,1.79,1.75,1.75,0,0,1-2,.32,2.61,2.61,0,0,1-.94-2.05l-.71-5.52a2.25,2.25,0,0,0-1.57-1.82,5.41,5.41,0,0,1-3-2.39,11.38,11.38,0,0,1-1.27-3.17,1.36,1.36,0,0,0-2-.82C329.77,191.25,320.64,193,312.73,192.36Z" style="fill:#ffc8b5"></path><polygon points="327.08 203.52 323.62 212.66 329.67 212.73 327.08 203.52" style="fill:#eba891"></polygon><path d="M335.82,214.59l-4.07,2.95a3,3,0,0,0,3.54.37A2.66,2.66,0,0,0,335.82,214.59Z" style="fill:#eba891"></path><path d="M335.82,214.59l-4.07,2.95a3,3,0,0,0,3.54.37A2.66,2.66,0,0,0,335.82,214.59Z" style="opacity:0.30000000000000004"></path><path d="M333.77,218.32a2.67,2.67,0,0,0,1.52-.41,2.42,2.42,0,0,0,.79-2.56,2.79,2.79,0,0,0-1.65.92A2.84,2.84,0,0,0,333.77,218.32Z" style="fill:#eba891"></path><path d="M335.63,202.36a1.71,1.71,0,1,1-2.11-1.19A1.71,1.71,0,0,1,335.63,202.36Z" style="fill:#263238"></path><path d="M321.66,205.71a1.71,1.71,0,1,1-2.1-1.19A1.71,1.71,0,0,1,321.66,205.71Z" style="fill:#263238"></path><path d="M318.22,199.61l-2.94,3.55a2.45,2.45,0,0,1,0-2.79A2.89,2.89,0,0,1,318.22,199.61Z" style="fill:#263238"></path><path d="M332.26,195.45l4.36,1.5a2.44,2.44,0,0,0-1.44-2.38A2.9,2.9,0,0,0,332.26,195.45Z" style="fill:#263238"></path><path d="M418.36,273.78l-64.05,49.6A18.16,18.16,0,0,0,347.38,336l-7.18,75.27a2.44,2.44,0,0,0,3,.27l12.76-75.57a9.05,9.05,0,0,1,4.27-6.26l56.6-33.92C424.21,291.35,425.51,275.76,418.36,273.78Z" style="fill:#BE3938"></path><g style="opacity:0.2"><path d="M418.36,273.78l-64.05,49.6A18.16,18.16,0,0,0,347.38,336l-7.18,75.27a2.44,2.44,0,0,0,3,.27l12.76-75.57a9.05,9.05,0,0,1,4.27-6.26l56.6-33.92C424.21,291.35,425.51,275.76,418.36,273.78Z" style="fill:#fff"></path></g><path d="M327.6,303.28v0h0v0s0,0,0-.06a77265801265.8,77265801265.8,0,0,0,0-.12l0-.06a.14.14,0,0,0,0-.06l0-.06h0l-11.85-22.06,0-.06,0-.07,0-.07a.43.43,0,0,1,0-.07l-.05-.07-.05-.07-.05-.07-.06-.07-.05-.06-.05-.06,0-.05,0-.05,0,0,0,0,0,0,0,0,0,0,0,0,0,0,0,0,0,0,0,0,0,0,0,0,0,0,0,0,0,0,0,0,0,0,0,0,0,0,0,0,0,0,0,0,0,0-.05,0a1.29,1.29,0,0,0-.17-.16l0,0,0,0,0,0,0,0,0,0,0,0,0,0,0,0,0,0,0,0h0l0,0,0,0,0,0,0,0,0,0,0,0,0,0,0,0,0,0,0,0,0,0,0,0,0,0,0,0,0,0-.06,0-.06,0-.06,0-.07,0-.08,0-.07-.05,0,0-13.63-7.67,0,0-.08,0-.07,0-.08,0-.07,0-.07,0-.08,0-.07,0-.07,0-.08,0h-.25a.25.25,0,0,0-.2.08l-1.63,1.86h.06c-.14.11-.15.32.05.69L308.52,295a7.72,7.72,0,0,0,2.61,2.48l13.63,7.67c.7.39,1.12.4,1.18.11,0,0,0,.1,0,.13h0l1.62-1.86a.26.26,0,0,0,0-.09s0-.05,0-.07Zm-30.73-31.09s.05,0,.09,0h0l0,0C297,272.18,296.92,272.2,296.87,272.19Zm15.62,8.8.38.32h0Zm.86.83.16.18h0ZM326,305.15a1.34,1.34,0,0,0-.14-.44,1.61,1.61,0,0,1,.15.41h0S326,305.14,326,305.15Z" style="fill:#455a64"></path></g><g id="freepik--speech-bubble--inject-200"><path d="M381.21,132.51h0Z" style="fill:none"></path><path d="M388.91,131.12a6.13,6.13,0,0,0-2.27-2.31l-45.59-25.95c-2.73-1.57-9.21.56-9.21,5v28.36a6.11,6.11,0,0,0,3.08,5.29l30.69,17.48h0l-4.16-2.37,2,5.66a.34.34,0,0,0,.41.21v0c.36-.18,1.93-1,2.82-1.62h0l.06,0h0a.27.27,0,0,0,.08-.07l.49-.79,13.18,7.42a6,6,0,0,0,9.21-5V134.1A6.11,6.11,0,0,0,388.91,131.12Z" style="fill:#BE3938"></path><path d="M366.82,160.71a.27.27,0,0,1-.08.07h0l-.06,0h0c-.89.59-2.46,1.44-2.82,1.62v0a.41.41,0,0,0,.2-.14l1.93-3.14-.38-.22h0l1.7,1Z" style="fill:#fff;opacity:0.2"></path><path d="M382.84,134.56a6.08,6.08,0,0,0-1.63-2h0a6.39,6.39,0,0,0-.74-.5l-45.58-26a2,2,0,0,0-3.05,1.76c0-4.39,6.48-6.52,9.21-5l45.59,26a6.13,6.13,0,0,1,2.27,2.31Z" style="fill:#fff;opacity:0.4"></path><path d="M383.53,165.57V137.29a5.81,5.81,0,0,0,0-.72,6.22,6.22,0,0,0-.64-2l6.07-3.44a6.11,6.11,0,0,1,.79,3v28.28a6,6,0,0,1-9.21,5A2,2,0,0,0,383.53,165.57Z" style="fill:#fff;opacity:0.2"></path><path d="M338.55,117.21a5.73,5.73,0,0,1,3,4.79c0,1.89-1.22,2.37-3,1.35L336,121.89l0-6.14Zm-.07,4.72c.91.52,1.52.25,1.53-.81a3,3,0,0,0-1.52-2.56l-.95-.56v3.37l1,.56" style="fill:#fff"></path><path d="M344,121.67a3.8,3.8,0,0,1,2.11,3.42v2.64l-1.35-.78v-.62c-.2.35-.62.35-1.22,0A2.92,2.92,0,0,1,342,124c0-.88.56-1.1,1.84-.36l.83.47a1.51,1.51,0,0,0-.88-1.25,1.54,1.54,0,0,0-1.12-.24l-.48-1.42A3.11,3.11,0,0,1,344,121.67Zm.65,3.7V125l-.63-.36c-.46-.26-.64-.17-.64.12a1,1,0,0,0,.55.8c.32.18.6.17.71-.14" style="fill:#fff"></path><path d="M349.83,125v1.51a3.77,3.77,0,0,0-.33-.22c-.58-.34-1-.23-1,.61v2.18l-1.45-.83,0-4.76,1.38.79v.58C348.75,124.62,349.23,124.67,349.83,125Z" style="fill:#fff"></path><polygon points="351.89 124.54 351.88 127.95 353.37 127.14 355.08 128.13 353.36 129.18 355.22 132.98 353.46 131.97 352.3 129.62 351.88 129.88 351.87 131.05 350.42 130.21 350.44 123.7 351.89 124.54" style="fill:#fff"></polygon><polygon points="364.17 132 364.17 138.15 362.78 137.35 362.78 134.08 361.39 135.94 360.72 135.55 359.36 132.2 359.35 135.37 357.95 134.56 357.97 128.42 359.22 129.14 361.08 133.76 362.93 131.28 364.17 132" style="fill:#fff"></polygon><path d="M367.27,135.09a4.71,4.71,0,0,1,2.33,3.8c0,1.44-1,1.91-2.35,1.12a4.74,4.74,0,0,1-2.33-3.82C364.93,134.76,365.92,134.31,367.27,135.09Zm0,3.59c.49.28.87.09.87-.64a1.85,1.85,0,0,0-.87-1.62c-.48-.28-.87-.1-.87.62a1.9,1.9,0,0,0,.87,1.64" style="fill:#fff"></path><path d="M373.23,136.86l1.45.84,0,6.51-1.38-.8v-.47c-.27.21-.68.16-1.21-.15a4.36,4.36,0,0,1-2-3.65c0-1.51.91-1.92,2-1.27a3.1,3.1,0,0,1,1.15,1.15Zm-.85,4.77c.48.28.86.09.86-.64a1.87,1.87,0,0,0-.86-1.62c-.49-.28-.87-.1-.87.62a1.88,1.88,0,0,0,.87,1.64" style="fill:#fff"></path><path d="M379.83,144.82c0,.12,0,.27,0,.39l-3-1.73a2.1,2.1,0,0,0,1,1.35,1,1,0,0,0,1,.14l.76,1.35c-.39.28-1,.21-1.77-.24a4.73,4.73,0,0,1-2.41-3.87c0-1.43,1-1.89,2.28-1.14A4.48,4.48,0,0,1,379.83,144.82Zm-3.05-2.23,1.7,1a1.79,1.79,0,0,0-.85-1.31c-.45-.26-.76-.12-.85.33" style="fill:#fff"></path><path d="M343.78,132.46a6.77,6.77,0,0,1,3.3,5.47c0,2-1.41,2.75-3.32,1.65a6.77,6.77,0,0,1-3.3-5.47C340.47,132.06,341.87,131.36,343.78,132.46Zm0,5.51c.91.53,1.61.16,1.62-1a3.48,3.48,0,0,0-1.61-2.89c-.9-.52-1.6-.15-1.61,1a3.45,3.45,0,0,0,1.6,2.87" style="fill:#fff"></path><polygon points="353.65 138.29 353.63 145.14 352.24 144.34 349.62 139.17 349.61 142.82 347.96 141.87 347.98 135.02 349.36 135.82 351.98 140.99 351.99 137.34 353.65 138.29" style="fill:#fff"></polygon><path d="M368.79,143.45a2.46,2.46,0,0,1,.89.94c.5.85.49,1.77,0,2.05l-6.91,3.94a.91.91,0,0,1-.9-.09,2.61,2.61,0,0,1-.89-.94l-2.32-4c-.49-.86-.49-1.78,0-2.06a.93.93,0,0,1,.9.09,2.61,2.61,0,0,1,.89.94l1.43,2.5,6-3.43A.89.89,0,0,1,368.79,143.45Z" style="fill:#fff"></path></g><g id="freepik--Plant--inject-200"><path d="M435.94,386.13c5.17,3,5.19,7.82.06,10.81s-13.5,3-18.67,0-5.19-7.83-.06-10.81S430.77,383.14,435.94,386.13Z" style="opacity:0.1"></path><path d="M441.66,365.22l-15,.43-15-.43c-.64,10.14,1.34,20.48,4.07,25.53h0a6.86,6.86,0,0,0,3,3c4.43,2.55,11.6,2.55,16,0a6.63,6.63,0,0,0,3-3.11C440.34,385.59,442.3,375.31,441.66,365.22Z" style="fill:#455a64"></path><path d="M441.66,365.22l-15,.43-15-.43c-.64,10.14,1.34,20.48,4.07,25.53h0a6.86,6.86,0,0,0,3,3c4.43,2.55,11.6,2.55,16,0a6.63,6.63,0,0,0,3-3.11C440.34,385.59,442.3,375.31,441.66,365.22Z" style="opacity:0.1"></path><path d="M437.22,359.06c5.89,3.4,5.92,8.91.07,12.31s-15.36,3.4-21.24,0-5.92-8.91-.07-12.31S431.34,355.66,437.22,359.06Z" style="fill:#455a64"></path><path d="M434.9,360.42c4.59,2.65,4.61,6.95.05,9.6s-12,2.65-16.57,0-4.62-6.95-.06-9.6S430.3,357.76,434.9,360.42Z" style="fill:#455a64"></path><g style="opacity:0.15"><path d="M434.9,360.42c4.59,2.65,4.61,6.95.05,9.6s-12,2.65-16.57,0-4.62-6.95-.06-9.6S430.3,357.76,434.9,360.42Z"></path></g><path d="M451.34,301.11c-33.86,11.09-34.17,33.73-26.53,49.86,1.92,3.27,7.75,5,12.82-15l-8.9,1.14,10.37-5.25,2.69-8.05-8.64.65,11-4.62A162.16,162.16,0,0,1,451.34,301.11Z" style="fill:#455a64"></path><path d="M451.34,301.11c-33.86,11.09-34.17,33.73-26.53,49.86,1.92,3.27,7.75,5,12.82-15l-8.9,1.14,10.37-5.25,2.69-8.05-8.64.65,11-4.62A162.16,162.16,0,0,1,451.34,301.11Z" style="opacity:0.2"></path><path d="M451.34,301.11c-33.86,11.09-34.17,33.73-26.53,49.86,1.92,3.27,7.75,5,12.82-15l-8.9,1.14,10.37-5.25,2.69-8.05-8.64.65,11-4.62A162.16,162.16,0,0,1,451.34,301.11Z" style="fill:#fff;opacity:0.2"></path><path d="M441.76,306.77c-17.85,13.55-19.47,29.09-14.42,45.31C425.55,337.8,423.63,323.36,441.76,306.77Z" style="fill:#455a64"></path><path d="M394,324.12c33.38,4.7,37.42,25.74,33,42-1.25,3.36-6.39,6-14.44-11.88l8.47-.42-10.53-3.17-3.84-7,8.15-.84-11-2.47A151.61,151.61,0,0,0,394,324.12Z" style="fill:#455a64"></path><path d="M394,324.12c33.38,4.7,37.42,25.74,33,42-1.25,3.36-6.39,6-14.44-11.88l8.47-.42-10.53-3.17-3.84-7,8.15-.84-11-2.47A151.61,151.61,0,0,0,394,324.12Z" style="fill:#fff;opacity:0.2"></path><path d="M394,324.12c33.38,4.7,37.42,25.74,33,42-1.25,3.36-6.39,6-14.44-11.88l8.47-.42-10.53-3.17-3.84-7,8.15-.84-11-2.47A151.61,151.61,0,0,0,394,324.12Z" style="opacity:0.1"></path><path d="M403.85,327.8c18.88,9.65,23,23.85,21,39.8C424.1,354,423.5,340.23,403.85,327.8Z" style="fill:#455a64"></path><path d="M461.1,332c-30.6.5-36.61,19-34.44,34.19.75,3.17,5.09,6.09,14.35-9.09l-7.59-1.32,9.84-1.68,4.25-5.92-7.25-1.67,10.17-1A140.78,140.78,0,0,1,461.1,332Z" style="fill:#455a64"></path><path d="M451.8,334.22c-18.09,6.59-23.36,18.93-23.34,33.52C430.62,355.57,432.71,343.23,451.8,334.22Z" style="fill:#455a64"></path><path d="M461.1,332c-30.6.5-36.61,19-34.44,34.19.75,3.17,5.09,6.09,14.35-9.09l-7.59-1.32,9.84-1.68,4.25-5.92-7.25-1.67,10.17-1A140.78,140.78,0,0,1,461.1,332Z" style="fill:#fff;opacity:0.2"></path></g></svg>